<?xml version="1.0" encoding="UTF-8"?>
<svg version="1.1" xmlns="http://www.w3.org/2000/svg" width="328" height="328">
<path d="M0 0 C108.24 0 216.48 0 328 0 C328 108.24 328 216.48 328 328 C219.76 328 111.52 328 0 328 C0 219.76 0 111.52 0 0 Z " fill="#FFFEFE" transform="translate(0,0)"/>
<path d="M0 0 C2.5625 0.3125 2.5625 0.3125 4.2043457 1.45825195 C6.14264815 4.10455917 5.90308622 6.03910819 5.85546875 9.29296875 C5.8409668 11.03803711 5.8409668 11.03803711 5.82617188 12.81835938 C5.80103516 14.03330078 5.77589844 15.24824219 5.75 16.5 C5.72969727 18.33981445 5.72969727 18.33981445 5.70898438 20.21679688 C5.67359036 23.2488845 5.61978295 26.28074691 5.5625 29.3125 C10.1825 29.3125 14.8025 29.3125 19.5625 29.3125 C19.52769531 27.47042969 19.49289063 25.62835938 19.45703125 23.73046875 C19.42889724 21.3203216 19.40159667 18.91016461 19.375 16.5 C19.34986328 15.28505859 19.32472656 14.07011719 19.29882812 12.81835938 C19.28916016 11.65498047 19.27949219 10.49160156 19.26953125 9.29296875 C19.2538208 8.21942139 19.23811035 7.14587402 19.22192383 6.03979492 C19.5625 3.3125 19.5625 3.3125 20.9206543 1.45825195 C23.23204445 -0.15473748 24.81011884 -0.04036938 27.5625 0.3125 C29.5625 2.3125 29.5625 2.3125 29.78955078 5.01806641 C29.77907715 6.13874512 29.76860352 7.25942383 29.7578125 8.4140625 C29.75136719 9.62578125 29.74492188 10.8375 29.73828125 12.0859375 C29.71314453 13.99246094 29.71314453 13.99246094 29.6875 15.9375 C29.67847656 17.21625 29.66945313 18.495 29.66015625 19.8125 C29.63652382 22.97924579 29.60065186 26.14589585 29.5625 29.3125 C34.5125 29.3125 39.4625 29.3125 44.5625 29.3125 C44.53929687 27.38664062 44.51609375 25.46078125 44.4921875 23.4765625 C44.47343364 20.96354553 44.45523303 18.45052438 44.4375 15.9375 C44.42074219 14.66648437 44.40398437 13.39546875 44.38671875 12.0859375 C44.38027344 10.87421875 44.37382812 9.6625 44.3671875 8.4140625 C44.35671387 7.29338379 44.34624023 6.17270508 44.33544922 5.01806641 C44.5625 2.3125 44.5625 2.3125 46.5625 0.3125 C49.0625 0.0625 49.0625 0.0625 51.5625 0.3125 C53.5625 2.3125 53.5625 2.3125 53.78955078 5.01806641 C53.77907715 6.13874512 53.76860352 7.25942383 53.7578125 8.4140625 C53.75136719 9.62578125 53.74492187 10.8375 53.73828125 12.0859375 C53.71314453 13.99246094 53.71314453 13.99246094 53.6875 15.9375 C53.67847656 17.21625 53.66945313 18.495 53.66015625 19.8125 C53.63652382 22.97924579 53.60065186 26.14589585 53.5625 29.3125 C58.5125 29.3125 63.4625 29.3125 68.5625 29.3125 C68.53929687 27.47042969 68.51609375 25.62835938 68.4921875 23.73046875 C68.47343145 21.32031654 68.45523108 18.91015997 68.4375 16.5 C68.42074219 15.28505859 68.40398437 14.07011719 68.38671875 12.81835938 C68.38027344 11.65498047 68.37382812 10.49160156 68.3671875 9.29296875 C68.35671387 8.21942139 68.34624023 7.14587402 68.33544922 6.03979492 C68.5625 3.3125 68.5625 3.3125 70.5625 0.3125 C72.9056213 0.56811323 75.24093403 0.90520772 77.5625 1.3125 C78.91950647 4.02651294 78.6748861 6.16096316 78.66015625 9.1953125 C78.65532227 10.94521484 78.65532227 10.94521484 78.65039062 12.73046875 C78.63782227 14.56544922 78.63782227 14.56544922 78.625 16.4375 C78.62048828 17.66855469 78.61597656 18.89960937 78.61132812 20.16796875 C78.59951341 23.21616639 78.5815775 26.26433916 78.5625 29.3125 C83.1825 29.3125 87.8025 29.3125 92.5625 29.3125 C92.52769531 27.47042969 92.49289063 25.62835938 92.45703125 23.73046875 C92.42889724 21.3203216 92.40159667 18.91016461 92.375 16.5 C92.34986328 15.28505859 92.32472656 14.07011719 92.29882812 12.81835938 C92.28432617 11.07329102 92.28432617 11.07329102 92.26953125 9.29296875 C92.24596558 7.68264771 92.24596558 7.68264771 92.22192383 6.03979492 C92.5625 3.3125 92.5625 3.3125 93.9206543 1.45825195 C96.23204445 -0.15473748 97.81011884 -0.04036938 100.5625 0.3125 C102.5625 2.3125 102.5625 2.3125 102.78955078 5.10986328 C102.77384033 6.85372314 102.77384033 6.85372314 102.7578125 8.6328125 C102.74814453 10.51806641 102.74814453 10.51806641 102.73828125 12.44140625 C102.71314453 14.41947266 102.71314453 14.41947266 102.6875 16.4375 C102.67746983 17.77733721 102.66834404 19.11718152 102.66015625 20.45703125 C102.63652148 23.74226376 102.6006495 27.02740398 102.5625 30.3125 C107.5125 30.3125 112.4625 30.3125 117.5625 30.3125 C117.53929687 28.31445312 117.51609375 26.31640625 117.4921875 24.2578125 C117.47828264 22.32503761 117.46444794 20.39226148 117.45263672 18.45947266 C117.43761893 16.4533864 117.41221019 14.44738676 117.38671875 12.44140625 C117.38027344 11.18457031 117.37382812 9.92773438 117.3671875 8.6328125 C117.35671387 7.47023926 117.34624023 6.30766602 117.33544922 5.10986328 C117.5625 2.3125 117.5625 2.3125 119.5625 0.3125 C122.31488116 -0.04036938 123.89295555 -0.15473748 126.2043457 1.45825195 C128.14264815 4.10455917 127.90308622 6.03910819 127.85546875 9.29296875 C127.84580078 10.45634766 127.83613281 11.61972656 127.82617188 12.81835938 C127.80103516 14.03330078 127.77589844 15.24824219 127.75 16.5 C127.73646484 17.72654297 127.72292969 18.95308594 127.70898438 20.21679688 C127.67359036 23.2488845 127.61978295 26.28074691 127.5625 29.3125 C132.1825 29.3125 136.8025 29.3125 141.5625 29.3125 C141.52769531 27.47042969 141.49289063 25.62835938 141.45703125 23.73046875 C141.42889724 21.3203216 141.40159667 18.91016461 141.375 16.5 C141.34986328 15.28505859 141.32472656 14.07011719 141.29882812 12.81835938 C141.28432617 11.07329102 141.28432617 11.07329102 141.26953125 9.29296875 C141.24596558 7.68264771 141.24596558 7.68264771 141.22192383 6.03979492 C141.5625 3.3125 141.5625 3.3125 142.9206543 1.45825195 C145.23204445 -0.15473748 146.81011884 -0.04036938 149.5625 0.3125 C151.5625 2.3125 151.5625 2.3125 151.78955078 5.20166016 C151.77384033 7.00836182 151.77384033 7.00836182 151.7578125 8.8515625 C151.74814453 10.80449219 151.74814453 10.80449219 151.73828125 12.796875 C151.72156929 14.17708595 151.70463939 15.55729429 151.6875 16.9375 C151.67747006 18.32551452 151.66834423 19.71353589 151.66015625 21.1015625 C151.63651863 24.50538026 151.60356867 27.90885506 151.5625 31.3125 C152.305 31.539375 153.0475 31.76625 153.8125 32 C156.5625 33.3125 156.5625 33.3125 158.47216797 35.89770508 C160.37507296 38.58855072 160.37507296 38.58855072 163.55517578 38.94018555 C164.6945459 38.9431665 165.83391602 38.94614746 167.0078125 38.94921875 C168.86986328 38.97918945 168.86986328 38.97918945 170.76953125 39.00976562 C172.06246094 39.00654297 173.35539063 39.00332031 174.6875 39 C177.25267024 39.01652488 179.81780601 39.04085498 182.3828125 39.07421875 C184.08848389 39.0736145 184.08848389 39.0736145 185.82861328 39.07299805 C188.5625 39.3125 188.5625 39.3125 190.5625 41.3125 C190.91536938 44.06488116 191.02973748 45.64295555 189.41674805 47.9543457 C186.77044083 49.89264815 184.83589181 49.65308622 181.58203125 49.60546875 C180.41865234 49.59580078 179.25527344 49.58613281 178.05664062 49.57617188 C176.84169922 49.55103516 175.62675781 49.52589844 174.375 49.5 C173.14845703 49.48646484 171.92191406 49.47292969 170.65820312 49.45898438 C167.6261155 49.42359036 164.59425309 49.36978295 161.5625 49.3125 C161.5625 53.9325 161.5625 58.5525 161.5625 63.3125 C163.40457031 63.27769531 165.24664062 63.24289063 167.14453125 63.20703125 C169.5546784 63.17889724 171.96483539 63.15159667 174.375 63.125 C175.58994141 63.09986328 176.80488281 63.07472656 178.05664062 63.04882812 C179.80170898 63.03432617 179.80170898 63.03432617 181.58203125 63.01953125 C182.65557861 63.0038208 183.72912598 62.98811035 184.83520508 62.97192383 C187.5625 63.3125 187.5625 63.3125 189.41674805 64.6706543 C191.02973748 66.98204445 190.91536938 68.56011884 190.5625 71.3125 C188.5625 73.3125 188.5625 73.3125 185.85693359 73.53955078 C184.73625488 73.52907715 183.61557617 73.51860352 182.4609375 73.5078125 C181.24921875 73.50136719 180.0375 73.49492188 178.7890625 73.48828125 C177.51804687 73.47152344 176.24703125 73.45476562 174.9375 73.4375 C173.65875 73.42847656 172.38 73.41945313 171.0625 73.41015625 C167.89575421 73.38652382 164.72910415 73.35065186 161.5625 73.3125 C161.5625 78.2625 161.5625 83.2125 161.5625 88.3125 C163.48835937 88.28929687 165.41421875 88.26609375 167.3984375 88.2421875 C169.91145447 88.22343364 172.42447562 88.20523303 174.9375 88.1875 C176.84402344 88.16236328 176.84402344 88.16236328 178.7890625 88.13671875 C180.00078125 88.13027344 181.2125 88.12382812 182.4609375 88.1171875 C183.58161621 88.10671387 184.70229492 88.09624023 185.85693359 88.08544922 C188.5625 88.3125 188.5625 88.3125 190.5625 90.3125 C190.91536938 93.06488116 191.02973748 94.64295555 189.41674805 96.9543457 C186.77044083 98.89264815 184.83589181 98.65308622 181.58203125 98.60546875 C180.41865234 98.59580078 179.25527344 98.58613281 178.05664062 98.57617188 C176.23422852 98.5384668 176.23422852 98.5384668 174.375 98.5 C173.14845703 98.48646484 171.92191406 98.47292969 170.65820312 98.45898438 C167.6261155 98.42359036 164.59425309 98.36978295 161.5625 98.3125 C161.5625 102.9325 161.5625 107.5525 161.5625 112.3125 C163.40457031 112.28929687 165.24664062 112.26609375 167.14453125 112.2421875 C169.55468346 112.22343145 171.96484003 112.20523108 174.375 112.1875 C175.58994141 112.17074219 176.80488281 112.15398437 178.05664062 112.13671875 C179.22001953 112.13027344 180.38339844 112.12382812 181.58203125 112.1171875 C183.19235229 112.10147705 183.19235229 112.10147705 184.83520508 112.08544922 C187.5625 112.3125 187.5625 112.3125 190.5625 114.3125 C190.30688677 116.6556213 189.96979228 118.99093403 189.5625 121.3125 C186.84848706 122.66950647 184.71403684 122.4248861 181.6796875 122.41015625 C179.92978516 122.40532227 179.92978516 122.40532227 178.14453125 122.40039062 C176.92121094 122.39201172 175.69789063 122.38363281 174.4375 122.375 C173.20644531 122.37048828 171.97539062 122.36597656 170.70703125 122.36132812 C167.65883361 122.34951341 164.61066084 122.3315775 161.5625 122.3125 C161.5625 126.9325 161.5625 131.5525 161.5625 136.3125 C163.40457031 136.27769531 165.24664062 136.24289063 167.14453125 136.20703125 C169.5546784 136.17889724 171.96483539 136.15159667 174.375 136.125 C175.58994141 136.09986328 176.80488281 136.07472656 178.05664062 136.04882812 C179.80170898 136.03432617 179.80170898 136.03432617 181.58203125 136.01953125 C183.19235229 135.99596558 183.19235229 135.99596558 184.83520508 135.97192383 C187.5625 136.3125 187.5625 136.3125 189.41674805 137.6706543 C191.02973748 139.98204445 190.91536938 141.56011884 190.5625 144.3125 C188.5625 146.3125 188.5625 146.3125 185.76513672 146.53955078 C184.60256348 146.52907715 183.43999023 146.51860352 182.2421875 146.5078125 C180.35693359 146.49814453 180.35693359 146.49814453 178.43359375 146.48828125 C177.11488281 146.47152344 175.79617188 146.45476562 174.4375 146.4375 C173.09766279 146.42746983 171.75781848 146.41834404 170.41796875 146.41015625 C167.13273624 146.38652148 163.84759602 146.3506495 160.5625 146.3125 C160.5625 151.2625 160.5625 156.2125 160.5625 161.3125 C162.56054688 161.28929687 164.55859375 161.26609375 166.6171875 161.2421875 C168.54996239 161.22828264 170.48273852 161.21444794 172.41552734 161.20263672 C174.4216136 161.18761893 176.42761324 161.16221019 178.43359375 161.13671875 C179.69042969 161.13027344 180.94726562 161.12382812 182.2421875 161.1171875 C183.40476074 161.10671387 184.56733398 161.09624023 185.76513672 161.08544922 C188.5625 161.3125 188.5625 161.3125 190.5625 163.3125 C190.91536938 166.06488116 191.02973748 167.64295555 189.41674805 169.9543457 C186.77044083 171.89264815 184.83589181 171.65308622 181.58203125 171.60546875 C180.41865234 171.59580078 179.25527344 171.58613281 178.05664062 171.57617188 C176.84169922 171.55103516 175.62675781 171.52589844 174.375 171.5 C173.14845703 171.48646484 171.92191406 171.47292969 170.65820312 171.45898438 C167.6261155 171.42359036 164.59425309 171.36978295 161.5625 171.3125 C161.5625 175.9325 161.5625 180.5525 161.5625 185.3125 C163.40457031 185.27769531 165.24664062 185.24289063 167.14453125 185.20703125 C169.5546784 185.17889724 171.96483539 185.15159667 174.375 185.125 C175.58994141 185.09986328 176.80488281 185.07472656 178.05664062 185.04882812 C179.80170898 185.03432617 179.80170898 185.03432617 181.58203125 185.01953125 C183.19235229 184.99596558 183.19235229 184.99596558 184.83520508 184.97192383 C187.5625 185.3125 187.5625 185.3125 189.41674805 186.6706543 C191.02973748 188.98204445 190.91536938 190.56011884 190.5625 193.3125 C188.5625 195.3125 188.5625 195.3125 185.67333984 195.53955078 C184.46887207 195.52907715 183.2644043 195.51860352 182.0234375 195.5078125 C180.07050781 195.49814453 180.07050781 195.49814453 178.078125 195.48828125 C176.69791405 195.47156929 175.31770571 195.45463939 173.9375 195.4375 C172.54948548 195.42747006 171.16146411 195.41834423 169.7734375 195.41015625 C166.36961974 195.38651863 162.96614494 195.35356867 159.5625 195.3125 C159.2221875 196.42625 159.2221875 196.42625 158.875 197.5625 C157.5625 200.3125 157.5625 200.3125 154.97509766 202.18334961 C152.24811678 204.15040244 152.24811678 204.15040244 151.95068359 207.56469727 C151.95575928 209.45273071 151.95575928 209.45273071 151.9609375 211.37890625 C151.95293121 212.05420883 151.94492493 212.72951141 151.93667603 213.42527771 C151.9136482 215.57580048 151.92305531 217.72442707 151.9375 219.875 C151.9413482 222.02878696 151.93791835 224.18174091 151.91690063 226.33543396 C151.89926992 228.28677547 151.9067761 230.23829573 151.91552734 232.18969727 C151.5625 235.3125 151.5625 235.3125 150.20166016 237.25756836 C148.5625 238.3125 148.5625 238.3125 146 238.125 C143.5625 237.3125 143.5625 237.3125 141.5625 235.3125 C141.33544922 232.33154297 141.33544922 232.33154297 141.3671875 228.5546875 C141.3700174 227.89163605 141.37284729 227.22858459 141.37576294 226.54544067 C141.38696565 224.42594417 141.41206949 222.30686896 141.4375 220.1875 C141.44752972 218.75130818 141.45665559 217.31510975 141.46484375 215.87890625 C141.48520461 212.35647762 141.5243506 208.83496083 141.5625 205.3125 C136.9425 205.3125 132.3225 205.3125 127.5625 205.3125 C127.59730469 207.44332031 127.63210937 209.57414063 127.66796875 211.76953125 C127.69136914 213.83470317 127.70958285 215.89986028 127.72729492 217.96508789 C127.74237589 219.39972552 127.7628438 220.83431708 127.78881836 222.26879883 C127.82523437 224.33165859 127.84223243 226.39390858 127.85546875 228.45703125 C127.87903442 230.31871948 127.87903442 230.31871948 127.90307617 232.21801758 C127.5625 235.3125 127.5625 235.3125 126.23950195 237.25268555 C124.5625 238.3125 124.5625 238.3125 121.4375 238.125 C120.48875 237.856875 119.54 237.58875 118.5625 237.3125 C117.10151155 234.3905231 117.45115099 231.81356525 117.46484375 228.5546875 C117.46696617 227.56011032 117.46696617 227.56011032 117.46913147 226.54544067 C117.47473246 224.42608137 117.487285 222.30682741 117.5 220.1875 C117.50501488 218.75130361 117.50957781 217.31510556 117.51367188 215.87890625 C117.52385167 212.35669752 117.54342662 208.83471679 117.5625 205.3125 C112.6125 205.3125 107.6625 205.3125 102.5625 205.3125 C102.59730469 207.52710938 102.63210937 209.74171875 102.66796875 212.0234375 C102.69135464 214.16470042 102.70957662 216.3059492 102.72729492 218.44726562 C102.742396 219.93723909 102.76287858 221.42716801 102.78881836 222.91699219 C102.82514584 225.0567523 102.84221221 227.19592566 102.85546875 229.3359375 C102.87903442 231.26832275 102.87903442 231.26832275 102.90307617 233.23974609 C102.79068604 234.25375488 102.6782959 235.26776367 102.5625 236.3125 C99.5625 238.3125 99.5625 238.3125 97 238.0625 C94.5625 237.3125 94.5625 237.3125 92.5625 235.3125 C92.33544922 232.33154297 92.33544922 232.33154297 92.3671875 228.5546875 C92.3700174 227.89163605 92.37284729 227.22858459 92.37576294 226.54544067 C92.38696565 224.42594417 92.41206949 222.30686896 92.4375 220.1875 C92.44752972 218.75130818 92.45665559 217.31510975 92.46484375 215.87890625 C92.48520461 212.35647762 92.5243506 208.83496083 92.5625 205.3125 C87.9425 205.3125 83.3225 205.3125 78.5625 205.3125 C78.59730469 207.44332031 78.63210937 209.57414063 78.66796875 211.76953125 C78.69136914 213.83470317 78.70958285 215.89986028 78.72729492 217.96508789 C78.74237589 219.39972552 78.7628438 220.83431708 78.78881836 222.26879883 C78.82523437 224.33165859 78.84223243 226.39390858 78.85546875 228.45703125 C78.8711792 229.69815674 78.88688965 230.93928223 78.90307617 232.21801758 C78.5625 235.3125 78.5625 235.3125 77.2043457 237.25268555 C75.5625 238.3125 75.5625 238.3125 73 238.125 C70.5625 237.3125 70.5625 237.3125 68.5625 235.3125 C68.33544922 232.33154297 68.33544922 232.33154297 68.3671875 228.5546875 C68.3700174 227.89163605 68.37284729 227.22858459 68.37576294 226.54544067 C68.38696565 224.42594417 68.41206949 222.30686896 68.4375 220.1875 C68.44752972 218.75130818 68.45665559 217.31510975 68.46484375 215.87890625 C68.48520461 212.35647762 68.5243506 208.83496083 68.5625 205.3125 C63.9425 205.3125 59.3225 205.3125 54.5625 205.3125 C54.59730469 207.44332031 54.63210937 209.57414063 54.66796875 211.76953125 C54.69136914 213.83470317 54.70958285 215.89986028 54.72729492 217.96508789 C54.74237589 219.39972552 54.7628438 220.83431708 54.78881836 222.26879883 C54.82523437 224.33165859 54.84223243 226.39390858 54.85546875 228.45703125 C54.8711792 229.69815674 54.88688965 230.93928223 54.90307617 232.21801758 C54.5625 235.3125 54.5625 235.3125 53.2043457 237.22143555 C50.88592127 238.76211046 49.28393197 238.66140153 46.5625 238.3125 C44.5625 236.3125 44.5625 236.3125 44.33544922 233.14794922 C44.33576611 231.80432037 44.34707819 230.4606659 44.3671875 229.1171875 C44.3700174 228.40974396 44.37284729 227.70230042 44.37576294 226.97341919 C44.38696863 224.7112749 44.41207321 222.44952485 44.4375 220.1875 C44.44752933 218.65495363 44.45665526 217.12240106 44.46484375 215.58984375 C44.4852088 211.83045465 44.52435482 208.07191922 44.5625 204.3125 C39.6125 204.3125 34.6625 204.3125 29.5625 204.3125 C29.59730469 206.51550781 29.63210937 208.71851563 29.66796875 210.98828125 C29.69136783 213.12295231 29.7095823 215.25760907 29.72729492 217.39233398 C29.74237768 218.87547199 29.76284689 220.35856544 29.78881836 221.84155273 C29.82522616 223.97390745 29.84223073 226.10567235 29.85546875 228.23828125 C29.8711792 229.52130127 29.88688965 230.80432129 29.90307617 232.1262207 C29.5625 235.3125 29.5625 235.3125 28.2043457 237.26635742 C26.5625 238.3125 26.5625 238.3125 24 238.125 C21.5625 237.3125 21.5625 237.3125 19.5625 235.3125 C19.33544922 232.33154297 19.33544922 232.33154297 19.3671875 228.5546875 C19.3700174 227.89163605 19.37284729 227.22858459 19.37576294 226.54544067 C19.38696565 224.42594417 19.41206949 222.30686896 19.4375 220.1875 C19.44752972 218.75130818 19.45665559 217.31510975 19.46484375 215.87890625 C19.48520461 212.35647762 19.5243506 208.83496083 19.5625 205.3125 C14.9425 205.3125 10.3225 205.3125 5.5625 205.3125 C5.59730469 207.44332031 5.63210937 209.57414063 5.66796875 211.76953125 C5.69136914 213.83470317 5.70958285 215.89986028 5.72729492 217.96508789 C5.74237589 219.39972552 5.7628438 220.83431708 5.78881836 222.26879883 C5.82523437 224.33165859 5.84223243 226.39390858 5.85546875 228.45703125 C5.8711792 229.69815674 5.88688965 230.93928223 5.90307617 232.21801758 C5.5625 235.3125 5.5625 235.3125 4.23950195 237.25268555 C2.5625 238.3125 2.5625 238.3125 -0.5625 238.125 C-1.985625 237.7228125 -1.985625 237.7228125 -3.4375 237.3125 C-4.91655238 234.35439524 -4.55940903 231.3577845 -4.53515625 228.1171875 C-4.5337413 227.40974396 -4.53232635 226.70230042 -4.53086853 225.97341919 C-4.525266 223.71140331 -4.51271318 221.44948602 -4.5 219.1875 C-4.49498532 217.65494935 -4.49042236 216.12239714 -4.48632812 214.58984375 C-4.47529577 210.83069112 -4.45802952 207.07161228 -4.4375 203.3125 C-5.55125 202.9721875 -5.55125 202.9721875 -6.6875 202.625 C-9.4375 201.3125 -9.4375 201.3125 -11.34716797 198.72729492 C-13.25007296 196.03644928 -13.25007296 196.03644928 -16.43017578 195.68481445 C-17.5695459 195.6818335 -18.70891602 195.67885254 -19.8828125 195.67578125 C-21.12417969 195.65580078 -22.36554688 195.63582031 -23.64453125 195.61523438 C-24.93746094 195.61845703 -26.23039062 195.62167969 -27.5625 195.625 C-30.12767024 195.60847512 -32.69280601 195.58414502 -35.2578125 195.55078125 C-36.96348389 195.5513855 -36.96348389 195.5513855 -38.70361328 195.55200195 C-41.4375 195.3125 -41.4375 195.3125 -43.4375 193.3125 C-43.79036938 190.56011884 -43.90473748 188.98204445 -42.29174805 186.6706543 C-39.64544083 184.73235185 -37.71089181 184.97191378 -34.45703125 185.01953125 C-33.29365234 185.02919922 -32.13027344 185.03886719 -30.93164062 185.04882812 C-29.71669922 185.07396484 -28.50175781 185.09910156 -27.25 185.125 C-26.02345703 185.13853516 -24.79691406 185.15207031 -23.53320312 185.16601562 C-20.5011155 185.20140964 -17.46925309 185.25521705 -14.4375 185.3125 C-14.4375 180.6925 -14.4375 176.0725 -14.4375 171.3125 C-16.27957031 171.34730469 -18.12164062 171.38210937 -20.01953125 171.41796875 C-22.4296784 171.44610276 -24.83983539 171.47340333 -27.25 171.5 C-28.46494141 171.52513672 -29.67988281 171.55027344 -30.93164062 171.57617188 C-32.67670898 171.59067383 -32.67670898 171.59067383 -34.45703125 171.60546875 C-36.06735229 171.62903442 -36.06735229 171.62903442 -37.71020508 171.65307617 C-40.4375 171.3125 -40.4375 171.3125 -42.29174805 169.9543457 C-43.90473748 167.64295555 -43.79036938 166.06488116 -43.4375 163.3125 C-41.4375 161.3125 -41.4375 161.3125 -38.73193359 161.08544922 C-37.61125488 161.09592285 -36.49057617 161.10639648 -35.3359375 161.1171875 C-33.51835938 161.12685547 -33.51835938 161.12685547 -31.6640625 161.13671875 C-30.39304687 161.15347656 -29.12203125 161.17023438 -27.8125 161.1875 C-26.53375 161.19652344 -25.255 161.20554688 -23.9375 161.21484375 C-20.77075421 161.23847618 -17.60410415 161.27434814 -14.4375 161.3125 C-14.4375 156.3625 -14.4375 151.4125 -14.4375 146.3125 C-16.36335938 146.33570313 -18.28921875 146.35890625 -20.2734375 146.3828125 C-22.78645447 146.40156636 -25.29947562 146.41976697 -27.8125 146.4375 C-29.08351563 146.45425781 -30.35453125 146.47101563 -31.6640625 146.48828125 C-32.87578125 146.49472656 -34.0875 146.50117188 -35.3359375 146.5078125 C-36.45661621 146.51828613 -37.57729492 146.52875977 -38.73193359 146.53955078 C-41.4375 146.3125 -41.4375 146.3125 -43.4375 144.3125 C-43.6875 141.8125 -43.6875 141.8125 -43.4375 139.3125 C-41.4375 137.3125 -41.4375 137.3125 -38.73193359 137.08544922 C-37.61125488 137.09592285 -36.49057617 137.10639648 -35.3359375 137.1171875 C-33.51835938 137.12685547 -33.51835938 137.12685547 -31.6640625 137.13671875 C-30.39304687 137.15347656 -29.12203125 137.17023438 -27.8125 137.1875 C-26.53375 137.19652344 -25.255 137.20554688 -23.9375 137.21484375 C-20.77075421 137.23847618 -17.60410415 137.27434814 -14.4375 137.3125 C-14.4375 132.3625 -14.4375 127.4125 -14.4375 122.3125 C-17.20060547 122.36470703 -17.20060547 122.36470703 -20.01953125 122.41796875 C-22.4296784 122.44610276 -24.83983539 122.47340333 -27.25 122.5 C-29.07241211 122.53770508 -29.07241211 122.53770508 -30.93164062 122.57617188 C-32.67670898 122.59067383 -32.67670898 122.59067383 -34.45703125 122.60546875 C-35.53057861 122.6211792 -36.60412598 122.63688965 -37.71020508 122.65307617 C-40.4375 122.3125 -40.4375 122.3125 -42.2878418 120.9543457 C-43.92119376 118.62172902 -43.8646664 117.08908159 -43.4375 114.3125 C-39.94413182 111.98358788 -38.57742135 112.07698857 -34.45703125 112.1171875 C-33.29365234 112.12363281 -32.13027344 112.13007813 -30.93164062 112.13671875 C-29.10922852 112.16185547 -29.10922852 112.16185547 -27.25 112.1875 C-26.02345703 112.19652344 -24.79691406 112.20554687 -23.53320312 112.21484375 C-20.50121915 112.23843896 -17.46933527 112.27431033 -14.4375 112.3125 C-14.4375 107.6925 -14.4375 103.0725 -14.4375 98.3125 C-17.20060547 98.36470703 -17.20060547 98.36470703 -20.01953125 98.41796875 C-22.4296784 98.44610276 -24.83983539 98.47340333 -27.25 98.5 C-29.07241211 98.53770508 -29.07241211 98.53770508 -30.93164062 98.57617188 C-32.67670898 98.59067383 -32.67670898 98.59067383 -34.45703125 98.60546875 C-35.53057861 98.6211792 -36.60412598 98.63688965 -37.71020508 98.65307617 C-40.4375 98.3125 -40.4375 98.3125 -42.29174805 96.9543457 C-43.90473748 94.64295555 -43.79036938 93.06488116 -43.4375 90.3125 C-41.4375 88.3125 -41.4375 88.3125 -38.64013672 88.08544922 C-36.89627686 88.10115967 -36.89627686 88.10115967 -35.1171875 88.1171875 C-33.23193359 88.12685547 -33.23193359 88.12685547 -31.30859375 88.13671875 C-29.33052734 88.16185547 -29.33052734 88.16185547 -27.3125 88.1875 C-25.97266279 88.19753017 -24.63281848 88.20665596 -23.29296875 88.21484375 C-20.00773624 88.23847852 -16.72259602 88.2743505 -13.4375 88.3125 C-13.4375 83.3625 -13.4375 78.4125 -13.4375 73.3125 C-16.43457031 73.34730469 -16.43457031 73.34730469 -19.4921875 73.3828125 C-21.42496239 73.39671736 -23.35773852 73.41055206 -25.29052734 73.42236328 C-27.2966136 73.43738107 -29.30261324 73.46278981 -31.30859375 73.48828125 C-32.56542969 73.49472656 -33.82226562 73.50117187 -35.1171875 73.5078125 C-36.27976074 73.51828613 -37.44233398 73.52875977 -38.64013672 73.53955078 C-41.4375 73.3125 -41.4375 73.3125 -43.4375 71.3125 C-43.79036938 68.56011884 -43.90473748 66.98204445 -42.29174805 64.6706543 C-39.64544083 62.73235185 -37.71089181 62.97191378 -34.45703125 63.01953125 C-33.29365234 63.02919922 -32.13027344 63.03886719 -30.93164062 63.04882812 C-29.71669922 63.07396484 -28.50175781 63.09910156 -27.25 63.125 C-26.02345703 63.13853516 -24.79691406 63.15207031 -23.53320312 63.16601562 C-20.5011155 63.20140964 -17.46925309 63.25521705 -14.4375 63.3125 C-14.4375 58.6925 -14.4375 54.0725 -14.4375 49.3125 C-17.20060547 49.36470703 -17.20060547 49.36470703 -20.01953125 49.41796875 C-22.4296784 49.44610276 -24.83983539 49.47340333 -27.25 49.5 C-28.46494141 49.52513672 -29.67988281 49.55027344 -30.93164062 49.57617188 C-32.67670898 49.59067383 -32.67670898 49.59067383 -34.45703125 49.60546875 C-35.53057861 49.6211792 -36.60412598 49.63688965 -37.71020508 49.65307617 C-40.4375 49.3125 -40.4375 49.3125 -42.29174805 47.9543457 C-43.90473748 45.64295555 -43.79036938 44.06488116 -43.4375 41.3125 C-41.4375 39.3125 -41.4375 39.3125 -38.54833984 39.08544922 C-37.34387207 39.09592285 -36.1394043 39.10639648 -34.8984375 39.1171875 C-32.94550781 39.12685547 -32.94550781 39.12685547 -30.953125 39.13671875 C-29.57291405 39.15343071 -28.19270571 39.17036061 -26.8125 39.1875 C-25.42448548 39.19752994 -24.03646411 39.20665577 -22.6484375 39.21484375 C-19.24461974 39.23848137 -15.84114494 39.27143133 -12.4375 39.3125 C-12.210625 38.57 -11.98375 37.8275 -11.75 37.0625 C-10.4375 34.3125 -10.4375 34.3125 -7.85229492 32.40283203 C-5.16144928 30.49992704 -5.16144928 30.49992704 -4.80981445 27.31982422 C-4.8068335 26.1804541 -4.80385254 25.04108398 -4.80078125 23.8671875 C-4.78080078 22.62582031 -4.76082031 21.38445312 -4.74023438 20.10546875 C-4.74345703 18.81253906 -4.74667969 17.51960938 -4.75 16.1875 C-4.73347512 13.62232976 -4.70914502 11.05719399 -4.67578125 8.4921875 C-4.6763855 6.78651611 -4.6763855 6.78651611 -4.67700195 5.04638672 C-4.36297673 1.46182557 -3.60441269 0.46210419 0 0 Z " fill="#FFFDFD" transform="translate(88.4375,44.6875)"/>
<path d="M0 0 C2.5625 0.3125 2.5625 0.3125 4.2043457 1.45825195 C6.14264815 4.10455917 5.90308622 6.03910819 5.85546875 9.29296875 C5.8409668 11.03803711 5.8409668 11.03803711 5.82617188 12.81835938 C5.80103516 14.03330078 5.77589844 15.24824219 5.75 16.5 C5.72969727 18.33981445 5.72969727 18.33981445 5.70898438 20.21679688 C5.67359036 23.2488845 5.61978295 26.28074691 5.5625 29.3125 C10.1825 29.3125 14.8025 29.3125 19.5625 29.3125 C19.52769531 27.47042969 19.49289063 25.62835938 19.45703125 23.73046875 C19.42889724 21.3203216 19.40159667 18.91016461 19.375 16.5 C19.34986328 15.28505859 19.32472656 14.07011719 19.29882812 12.81835938 C19.28916016 11.65498047 19.27949219 10.49160156 19.26953125 9.29296875 C19.2538208 8.21942139 19.23811035 7.14587402 19.22192383 6.03979492 C19.5625 3.3125 19.5625 3.3125 20.9206543 1.45825195 C23.23204445 -0.15473748 24.81011884 -0.04036938 27.5625 0.3125 C29.5625 2.3125 29.5625 2.3125 29.78955078 5.01806641 C29.77907715 6.13874512 29.76860352 7.25942383 29.7578125 8.4140625 C29.75136719 9.62578125 29.74492188 10.8375 29.73828125 12.0859375 C29.71314453 13.99246094 29.71314453 13.99246094 29.6875 15.9375 C29.67847656 17.21625 29.66945313 18.495 29.66015625 19.8125 C29.63652382 22.97924579 29.60065186 26.14589585 29.5625 29.3125 C34.5125 29.3125 39.4625 29.3125 44.5625 29.3125 C44.53929687 27.38664062 44.51609375 25.46078125 44.4921875 23.4765625 C44.47343364 20.96354553 44.45523303 18.45052438 44.4375 15.9375 C44.42074219 14.66648437 44.40398437 13.39546875 44.38671875 12.0859375 C44.38027344 10.87421875 44.37382812 9.6625 44.3671875 8.4140625 C44.35671387 7.29338379 44.34624023 6.17270508 44.33544922 5.01806641 C44.5625 2.3125 44.5625 2.3125 46.5625 0.3125 C49.0625 0.0625 49.0625 0.0625 51.5625 0.3125 C53.5625 2.3125 53.5625 2.3125 53.78955078 5.01806641 C53.77907715 6.13874512 53.76860352 7.25942383 53.7578125 8.4140625 C53.75136719 9.62578125 53.74492187 10.8375 53.73828125 12.0859375 C53.71314453 13.99246094 53.71314453 13.99246094 53.6875 15.9375 C53.67847656 17.21625 53.66945313 18.495 53.66015625 19.8125 C53.63652382 22.97924579 53.60065186 26.14589585 53.5625 29.3125 C58.5125 29.3125 63.4625 29.3125 68.5625 29.3125 C68.53929687 27.47042969 68.51609375 25.62835938 68.4921875 23.73046875 C68.47343145 21.32031654 68.45523108 18.91015997 68.4375 16.5 C68.42074219 15.28505859 68.40398437 14.07011719 68.38671875 12.81835938 C68.38027344 11.65498047 68.37382812 10.49160156 68.3671875 9.29296875 C68.35671387 8.21942139 68.34624023 7.14587402 68.33544922 6.03979492 C68.5625 3.3125 68.5625 3.3125 70.5625 0.3125 C72.9056213 0.56811323 75.24093403 0.90520772 77.5625 1.3125 C78.91950647 4.02651294 78.6748861 6.16096316 78.66015625 9.1953125 C78.65532227 10.94521484 78.65532227 10.94521484 78.65039062 12.73046875 C78.63782227 14.56544922 78.63782227 14.56544922 78.625 16.4375 C78.62048828 17.66855469 78.61597656 18.89960937 78.61132812 20.16796875 C78.59951341 23.21616639 78.5815775 26.26433916 78.5625 29.3125 C83.1825 29.3125 87.8025 29.3125 92.5625 29.3125 C92.52769531 27.47042969 92.49289063 25.62835938 92.45703125 23.73046875 C92.42889724 21.3203216 92.40159667 18.91016461 92.375 16.5 C92.34986328 15.28505859 92.32472656 14.07011719 92.29882812 12.81835938 C92.28432617 11.07329102 92.28432617 11.07329102 92.26953125 9.29296875 C92.24596558 7.68264771 92.24596558 7.68264771 92.22192383 6.03979492 C92.5625 3.3125 92.5625 3.3125 93.9206543 1.45825195 C96.23204445 -0.15473748 97.81011884 -0.04036938 100.5625 0.3125 C102.5625 2.3125 102.5625 2.3125 102.78955078 5.10986328 C102.77384033 6.85372314 102.77384033 6.85372314 102.7578125 8.6328125 C102.74814453 10.51806641 102.74814453 10.51806641 102.73828125 12.44140625 C102.71314453 14.41947266 102.71314453 14.41947266 102.6875 16.4375 C102.67746983 17.77733721 102.66834404 19.11718152 102.66015625 20.45703125 C102.63652148 23.74226376 102.6006495 27.02740398 102.5625 30.3125 C107.5125 30.3125 112.4625 30.3125 117.5625 30.3125 C117.53929687 28.31445312 117.51609375 26.31640625 117.4921875 24.2578125 C117.47828264 22.32503761 117.46444794 20.39226148 117.45263672 18.45947266 C117.43761893 16.4533864 117.41221019 14.44738676 117.38671875 12.44140625 C117.38027344 11.18457031 117.37382812 9.92773438 117.3671875 8.6328125 C117.35671387 7.47023926 117.34624023 6.30766602 117.33544922 5.10986328 C117.5625 2.3125 117.5625 2.3125 119.5625 0.3125 C122.31488116 -0.04036938 123.89295555 -0.15473748 126.2043457 1.45825195 C128.14264815 4.10455917 127.90308622 6.03910819 127.85546875 9.29296875 C127.84580078 10.45634766 127.83613281 11.61972656 127.82617188 12.81835938 C127.80103516 14.03330078 127.77589844 15.24824219 127.75 16.5 C127.73646484 17.72654297 127.72292969 18.95308594 127.70898438 20.21679688 C127.67359036 23.2488845 127.61978295 26.28074691 127.5625 29.3125 C132.1825 29.3125 136.8025 29.3125 141.5625 29.3125 C141.52769531 27.47042969 141.49289063 25.62835938 141.45703125 23.73046875 C141.42889724 21.3203216 141.40159667 18.91016461 141.375 16.5 C141.34986328 15.28505859 141.32472656 14.07011719 141.29882812 12.81835938 C141.28432617 11.07329102 141.28432617 11.07329102 141.26953125 9.29296875 C141.24596558 7.68264771 141.24596558 7.68264771 141.22192383 6.03979492 C141.5625 3.3125 141.5625 3.3125 142.9206543 1.45825195 C145.23204445 -0.15473748 146.81011884 -0.04036938 149.5625 0.3125 C151.5625 2.3125 151.5625 2.3125 151.78955078 5.20166016 C151.77384033 7.00836182 151.77384033 7.00836182 151.7578125 8.8515625 C151.74814453 10.80449219 151.74814453 10.80449219 151.73828125 12.796875 C151.72156929 14.17708595 151.70463939 15.55729429 151.6875 16.9375 C151.67747006 18.32551452 151.66834423 19.71353589 151.66015625 21.1015625 C151.63651863 24.50538026 151.60356867 27.90885506 151.5625 31.3125 C152.305 31.539375 153.0475 31.76625 153.8125 32 C156.5625 33.3125 156.5625 33.3125 158.47216797 35.89770508 C160.37507296 38.58855072 160.37507296 38.58855072 163.55517578 38.94018555 C164.6945459 38.9431665 165.83391602 38.94614746 167.0078125 38.94921875 C168.86986328 38.97918945 168.86986328 38.97918945 170.76953125 39.00976562 C172.06246094 39.00654297 173.35539063 39.00332031 174.6875 39 C177.25267024 39.01652488 179.81780601 39.04085498 182.3828125 39.07421875 C184.08848389 39.0736145 184.08848389 39.0736145 185.82861328 39.07299805 C188.5625 39.3125 188.5625 39.3125 190.5625 41.3125 C190.91536938 44.06488116 191.02973748 45.64295555 189.41674805 47.9543457 C186.77044083 49.89264815 184.83589181 49.65308622 181.58203125 49.60546875 C180.41865234 49.59580078 179.25527344 49.58613281 178.05664062 49.57617188 C176.84169922 49.55103516 175.62675781 49.52589844 174.375 49.5 C173.14845703 49.48646484 171.92191406 49.47292969 170.65820312 49.45898438 C167.6261155 49.42359036 164.59425309 49.36978295 161.5625 49.3125 C161.5625 53.9325 161.5625 58.5525 161.5625 63.3125 C163.40457031 63.27769531 165.24664062 63.24289063 167.14453125 63.20703125 C169.5546784 63.17889724 171.96483539 63.15159667 174.375 63.125 C175.58994141 63.09986328 176.80488281 63.07472656 178.05664062 63.04882812 C179.80170898 63.03432617 179.80170898 63.03432617 181.58203125 63.01953125 C182.65557861 63.0038208 183.72912598 62.98811035 184.83520508 62.97192383 C187.5625 63.3125 187.5625 63.3125 189.41674805 64.6706543 C191.02973748 66.98204445 190.91536938 68.56011884 190.5625 71.3125 C188.5625 73.3125 188.5625 73.3125 185.85693359 73.53955078 C184.73625488 73.52907715 183.61557617 73.51860352 182.4609375 73.5078125 C181.24921875 73.50136719 180.0375 73.49492188 178.7890625 73.48828125 C177.51804687 73.47152344 176.24703125 73.45476562 174.9375 73.4375 C173.65875 73.42847656 172.38 73.41945313 171.0625 73.41015625 C167.89575421 73.38652382 164.72910415 73.35065186 161.5625 73.3125 C161.5625 78.2625 161.5625 83.2125 161.5625 88.3125 C163.48835937 88.28929687 165.41421875 88.26609375 167.3984375 88.2421875 C169.91145447 88.22343364 172.42447562 88.20523303 174.9375 88.1875 C176.84402344 88.16236328 176.84402344 88.16236328 178.7890625 88.13671875 C180.00078125 88.13027344 181.2125 88.12382812 182.4609375 88.1171875 C183.58161621 88.10671387 184.70229492 88.09624023 185.85693359 88.08544922 C188.5625 88.3125 188.5625 88.3125 190.5625 90.3125 C190.91536938 93.06488116 191.02973748 94.64295555 189.41674805 96.9543457 C186.77044083 98.89264815 184.83589181 98.65308622 181.58203125 98.60546875 C180.41865234 98.59580078 179.25527344 98.58613281 178.05664062 98.57617188 C176.23422852 98.5384668 176.23422852 98.5384668 174.375 98.5 C173.14845703 98.48646484 171.92191406 98.47292969 170.65820312 98.45898438 C167.6261155 98.42359036 164.59425309 98.36978295 161.5625 98.3125 C161.5625 102.9325 161.5625 107.5525 161.5625 112.3125 C163.40457031 112.28929687 165.24664062 112.26609375 167.14453125 112.2421875 C169.55468346 112.22343145 171.96484003 112.20523108 174.375 112.1875 C175.58994141 112.17074219 176.80488281 112.15398437 178.05664062 112.13671875 C179.22001953 112.13027344 180.38339844 112.12382812 181.58203125 112.1171875 C183.19235229 112.10147705 183.19235229 112.10147705 184.83520508 112.08544922 C187.5625 112.3125 187.5625 112.3125 190.5625 114.3125 C190.30688677 116.6556213 189.96979228 118.99093403 189.5625 121.3125 C186.84848706 122.66950647 184.71403684 122.4248861 181.6796875 122.41015625 C179.92978516 122.40532227 179.92978516 122.40532227 178.14453125 122.40039062 C176.92121094 122.39201172 175.69789063 122.38363281 174.4375 122.375 C173.20644531 122.37048828 171.97539062 122.36597656 170.70703125 122.36132812 C167.65883361 122.34951341 164.61066084 122.3315775 161.5625 122.3125 C161.5625 126.9325 161.5625 131.5525 161.5625 136.3125 C163.40457031 136.27769531 165.24664062 136.24289063 167.14453125 136.20703125 C169.5546784 136.17889724 171.96483539 136.15159667 174.375 136.125 C175.58994141 136.09986328 176.80488281 136.07472656 178.05664062 136.04882812 C179.80170898 136.03432617 179.80170898 136.03432617 181.58203125 136.01953125 C183.19235229 135.99596558 183.19235229 135.99596558 184.83520508 135.97192383 C187.5625 136.3125 187.5625 136.3125 189.41674805 137.6706543 C191.02973748 139.98204445 190.91536938 141.56011884 190.5625 144.3125 C188.5625 146.3125 188.5625 146.3125 185.76513672 146.53955078 C184.60256348 146.52907715 183.43999023 146.51860352 182.2421875 146.5078125 C180.35693359 146.49814453 180.35693359 146.49814453 178.43359375 146.48828125 C177.11488281 146.47152344 175.79617188 146.45476562 174.4375 146.4375 C173.09766279 146.42746983 171.75781848 146.41834404 170.41796875 146.41015625 C167.13273624 146.38652148 163.84759602 146.3506495 160.5625 146.3125 C160.5625 151.2625 160.5625 156.2125 160.5625 161.3125 C162.56054688 161.28929687 164.55859375 161.26609375 166.6171875 161.2421875 C168.54996239 161.22828264 170.48273852 161.21444794 172.41552734 161.20263672 C174.4216136 161.18761893 176.42761324 161.16221019 178.43359375 161.13671875 C179.69042969 161.13027344 180.94726562 161.12382812 182.2421875 161.1171875 C183.40476074 161.10671387 184.56733398 161.09624023 185.76513672 161.08544922 C188.5625 161.3125 188.5625 161.3125 190.5625 163.3125 C190.91536938 166.06488116 191.02973748 167.64295555 189.41674805 169.9543457 C186.77044083 171.89264815 184.83589181 171.65308622 181.58203125 171.60546875 C180.41865234 171.59580078 179.25527344 171.58613281 178.05664062 171.57617188 C176.84169922 171.55103516 175.62675781 171.52589844 174.375 171.5 C173.14845703 171.48646484 171.92191406 171.47292969 170.65820312 171.45898438 C167.6261155 171.42359036 164.59425309 171.36978295 161.5625 171.3125 C161.5625 175.9325 161.5625 180.5525 161.5625 185.3125 C163.40457031 185.27769531 165.24664062 185.24289063 167.14453125 185.20703125 C169.5546784 185.17889724 171.96483539 185.15159667 174.375 185.125 C175.58994141 185.09986328 176.80488281 185.07472656 178.05664062 185.04882812 C179.80170898 185.03432617 179.80170898 185.03432617 181.58203125 185.01953125 C183.19235229 184.99596558 183.19235229 184.99596558 184.83520508 184.97192383 C187.5625 185.3125 187.5625 185.3125 189.41674805 186.6706543 C191.02973748 188.98204445 190.91536938 190.56011884 190.5625 193.3125 C188.5625 195.3125 188.5625 195.3125 185.67333984 195.53955078 C184.46887207 195.52907715 183.2644043 195.51860352 182.0234375 195.5078125 C180.07050781 195.49814453 180.07050781 195.49814453 178.078125 195.48828125 C176.69791405 195.47156929 175.31770571 195.45463939 173.9375 195.4375 C172.54948548 195.42747006 171.16146411 195.41834423 169.7734375 195.41015625 C166.36961974 195.38651863 162.96614494 195.35356867 159.5625 195.3125 C159.2221875 196.42625 159.2221875 196.42625 158.875 197.5625 C157.5625 200.3125 157.5625 200.3125 154.97509766 202.18334961 C152.24811678 204.15040244 152.24811678 204.15040244 151.95068359 207.56469727 C151.95575928 209.45273071 151.95575928 209.45273071 151.9609375 211.37890625 C151.95293121 212.05420883 151.94492493 212.72951141 151.93667603 213.42527771 C151.9136482 215.57580048 151.92305531 217.72442707 151.9375 219.875 C151.9413482 222.02878696 151.93791835 224.18174091 151.91690063 226.33543396 C151.89926992 228.28677547 151.9067761 230.23829573 151.91552734 232.18969727 C151.5625 235.3125 151.5625 235.3125 150.20166016 237.25756836 C148.5625 238.3125 148.5625 238.3125 146 238.125 C143.5625 237.3125 143.5625 237.3125 141.5625 235.3125 C141.33544922 232.33154297 141.33544922 232.33154297 141.3671875 228.5546875 C141.3700174 227.89163605 141.37284729 227.22858459 141.37576294 226.54544067 C141.38696565 224.42594417 141.41206949 222.30686896 141.4375 220.1875 C141.44752972 218.75130818 141.45665559 217.31510975 141.46484375 215.87890625 C141.48520461 212.35647762 141.5243506 208.83496083 141.5625 205.3125 C136.9425 205.3125 132.3225 205.3125 127.5625 205.3125 C127.59730469 207.44332031 127.63210937 209.57414063 127.66796875 211.76953125 C127.69136914 213.83470317 127.70958285 215.89986028 127.72729492 217.96508789 C127.74237589 219.39972552 127.7628438 220.83431708 127.78881836 222.26879883 C127.82523437 224.33165859 127.84223243 226.39390858 127.85546875 228.45703125 C127.87903442 230.31871948 127.87903442 230.31871948 127.90307617 232.21801758 C127.5625 235.3125 127.5625 235.3125 126.23950195 237.25268555 C124.5625 238.3125 124.5625 238.3125 121.4375 238.125 C120.48875 237.856875 119.54 237.58875 118.5625 237.3125 C117.10151155 234.3905231 117.45115099 231.81356525 117.46484375 228.5546875 C117.46696617 227.56011032 117.46696617 227.56011032 117.46913147 226.54544067 C117.47473246 224.42608137 117.487285 222.30682741 117.5 220.1875 C117.50501488 218.75130361 117.50957781 217.31510556 117.51367188 215.87890625 C117.52385167 212.35669752 117.54342662 208.83471679 117.5625 205.3125 C112.6125 205.3125 107.6625 205.3125 102.5625 205.3125 C102.59730469 207.52710938 102.63210937 209.74171875 102.66796875 212.0234375 C102.69135464 214.16470042 102.70957662 216.3059492 102.72729492 218.44726562 C102.742396 219.93723909 102.76287858 221.42716801 102.78881836 222.91699219 C102.82514584 225.0567523 102.84221221 227.19592566 102.85546875 229.3359375 C102.87903442 231.26832275 102.87903442 231.26832275 102.90307617 233.23974609 C102.79068604 234.25375488 102.6782959 235.26776367 102.5625 236.3125 C99.5625 238.3125 99.5625 238.3125 97 238.0625 C94.5625 237.3125 94.5625 237.3125 92.5625 235.3125 C92.33544922 232.33154297 92.33544922 232.33154297 92.3671875 228.5546875 C92.3700174 227.89163605 92.37284729 227.22858459 92.37576294 226.54544067 C92.38696565 224.42594417 92.41206949 222.30686896 92.4375 220.1875 C92.44752972 218.75130818 92.45665559 217.31510975 92.46484375 215.87890625 C92.48520461 212.35647762 92.5243506 208.83496083 92.5625 205.3125 C87.9425 205.3125 83.3225 205.3125 78.5625 205.3125 C78.59730469 207.44332031 78.63210937 209.57414063 78.66796875 211.76953125 C78.69136914 213.83470317 78.70958285 215.89986028 78.72729492 217.96508789 C78.74237589 219.39972552 78.7628438 220.83431708 78.78881836 222.26879883 C78.82523437 224.33165859 78.84223243 226.39390858 78.85546875 228.45703125 C78.8711792 229.69815674 78.88688965 230.93928223 78.90307617 232.21801758 C78.5625 235.3125 78.5625 235.3125 77.2043457 237.25268555 C75.5625 238.3125 75.5625 238.3125 73 238.125 C70.5625 237.3125 70.5625 237.3125 68.5625 235.3125 C68.33544922 232.33154297 68.33544922 232.33154297 68.3671875 228.5546875 C68.3700174 227.89163605 68.37284729 227.22858459 68.37576294 226.54544067 C68.38696565 224.42594417 68.41206949 222.30686896 68.4375 220.1875 C68.44752972 218.75130818 68.45665559 217.31510975 68.46484375 215.87890625 C68.48520461 212.35647762 68.5243506 208.83496083 68.5625 205.3125 C63.9425 205.3125 59.3225 205.3125 54.5625 205.3125 C54.59730469 207.44332031 54.63210937 209.57414063 54.66796875 211.76953125 C54.69136914 213.83470317 54.70958285 215.89986028 54.72729492 217.96508789 C54.74237589 219.39972552 54.7628438 220.83431708 54.78881836 222.26879883 C54.82523437 224.33165859 54.84223243 226.39390858 54.85546875 228.45703125 C54.8711792 229.69815674 54.88688965 230.93928223 54.90307617 232.21801758 C54.5625 235.3125 54.5625 235.3125 53.2043457 237.22143555 C50.88592127 238.76211046 49.28393197 238.66140153 46.5625 238.3125 C44.5625 236.3125 44.5625 236.3125 44.33544922 233.14794922 C44.33576611 231.80432037 44.34707819 230.4606659 44.3671875 229.1171875 C44.3700174 228.40974396 44.37284729 227.70230042 44.37576294 226.97341919 C44.38696863 224.7112749 44.41207321 222.44952485 44.4375 220.1875 C44.44752933 218.65495363 44.45665526 217.12240106 44.46484375 215.58984375 C44.4852088 211.83045465 44.52435482 208.07191922 44.5625 204.3125 C39.6125 204.3125 34.6625 204.3125 29.5625 204.3125 C29.59730469 206.51550781 29.63210937 208.71851563 29.66796875 210.98828125 C29.69136783 213.12295231 29.7095823 215.25760907 29.72729492 217.39233398 C29.74237768 218.87547199 29.76284689 220.35856544 29.78881836 221.84155273 C29.82522616 223.97390745 29.84223073 226.10567235 29.85546875 228.23828125 C29.8711792 229.52130127 29.88688965 230.80432129 29.90307617 232.1262207 C29.5625 235.3125 29.5625 235.3125 28.2043457 237.26635742 C26.5625 238.3125 26.5625 238.3125 24 238.125 C21.5625 237.3125 21.5625 237.3125 19.5625 235.3125 C19.33544922 232.33154297 19.33544922 232.33154297 19.3671875 228.5546875 C19.3700174 227.89163605 19.37284729 227.22858459 19.37576294 226.54544067 C19.38696565 224.42594417 19.41206949 222.30686896 19.4375 220.1875 C19.44752972 218.75130818 19.45665559 217.31510975 19.46484375 215.87890625 C19.48520461 212.35647762 19.5243506 208.83496083 19.5625 205.3125 C14.9425 205.3125 10.3225 205.3125 5.5625 205.3125 C5.59730469 207.44332031 5.63210937 209.57414063 5.66796875 211.76953125 C5.69136914 213.83470317 5.70958285 215.89986028 5.72729492 217.96508789 C5.74237589 219.39972552 5.7628438 220.83431708 5.78881836 222.26879883 C5.82523437 224.33165859 5.84223243 226.39390858 5.85546875 228.45703125 C5.8711792 229.69815674 5.88688965 230.93928223 5.90307617 232.21801758 C5.5625 235.3125 5.5625 235.3125 4.23950195 237.25268555 C2.5625 238.3125 2.5625 238.3125 -0.5625 238.125 C-1.985625 237.7228125 -1.985625 237.7228125 -3.4375 237.3125 C-4.91655238 234.35439524 -4.55940903 231.3577845 -4.53515625 228.1171875 C-4.5337413 227.40974396 -4.53232635 226.70230042 -4.53086853 225.97341919 C-4.525266 223.71140331 -4.51271318 221.44948602 -4.5 219.1875 C-4.49498532 217.65494935 -4.49042236 216.12239714 -4.48632812 214.58984375 C-4.47529577 210.83069112 -4.45802952 207.07161228 -4.4375 203.3125 C-5.55125 202.9721875 -5.55125 202.9721875 -6.6875 202.625 C-9.4375 201.3125 -9.4375 201.3125 -11.34716797 198.72729492 C-13.25007296 196.03644928 -13.25007296 196.03644928 -16.43017578 195.68481445 C-17.5695459 195.6818335 -18.70891602 195.67885254 -19.8828125 195.67578125 C-21.12417969 195.65580078 -22.36554688 195.63582031 -23.64453125 195.61523438 C-24.93746094 195.61845703 -26.23039062 195.62167969 -27.5625 195.625 C-30.12767024 195.60847512 -32.69280601 195.58414502 -35.2578125 195.55078125 C-36.96348389 195.5513855 -36.96348389 195.5513855 -38.70361328 195.55200195 C-41.4375 195.3125 -41.4375 195.3125 -43.4375 193.3125 C-43.79036938 190.56011884 -43.90473748 188.98204445 -42.29174805 186.6706543 C-39.64544083 184.73235185 -37.71089181 184.97191378 -34.45703125 185.01953125 C-33.29365234 185.02919922 -32.13027344 185.03886719 -30.93164062 185.04882812 C-29.71669922 185.07396484 -28.50175781 185.09910156 -27.25 185.125 C-26.02345703 185.13853516 -24.79691406 185.15207031 -23.53320312 185.16601562 C-20.5011155 185.20140964 -17.46925309 185.25521705 -14.4375 185.3125 C-14.4375 180.6925 -14.4375 176.0725 -14.4375 171.3125 C-16.27957031 171.34730469 -18.12164062 171.38210937 -20.01953125 171.41796875 C-22.4296784 171.44610276 -24.83983539 171.47340333 -27.25 171.5 C-28.46494141 171.52513672 -29.67988281 171.55027344 -30.93164062 171.57617188 C-32.67670898 171.59067383 -32.67670898 171.59067383 -34.45703125 171.60546875 C-36.06735229 171.62903442 -36.06735229 171.62903442 -37.71020508 171.65307617 C-40.4375 171.3125 -40.4375 171.3125 -42.29174805 169.9543457 C-43.90473748 167.64295555 -43.79036938 166.06488116 -43.4375 163.3125 C-41.4375 161.3125 -41.4375 161.3125 -38.73193359 161.08544922 C-37.61125488 161.09592285 -36.49057617 161.10639648 -35.3359375 161.1171875 C-33.51835938 161.12685547 -33.51835938 161.12685547 -31.6640625 161.13671875 C-30.39304687 161.15347656 -29.12203125 161.17023438 -27.8125 161.1875 C-26.53375 161.19652344 -25.255 161.20554688 -23.9375 161.21484375 C-20.77075421 161.23847618 -17.60410415 161.27434814 -14.4375 161.3125 C-14.4375 156.3625 -14.4375 151.4125 -14.4375 146.3125 C-16.36335938 146.33570313 -18.28921875 146.35890625 -20.2734375 146.3828125 C-22.78645447 146.40156636 -25.29947562 146.41976697 -27.8125 146.4375 C-29.08351563 146.45425781 -30.35453125 146.47101563 -31.6640625 146.48828125 C-32.87578125 146.49472656 -34.0875 146.50117188 -35.3359375 146.5078125 C-36.45661621 146.51828613 -37.57729492 146.52875977 -38.73193359 146.53955078 C-41.4375 146.3125 -41.4375 146.3125 -43.4375 144.3125 C-43.6875 141.8125 -43.6875 141.8125 -43.4375 139.3125 C-41.4375 137.3125 -41.4375 137.3125 -38.73193359 137.08544922 C-37.61125488 137.09592285 -36.49057617 137.10639648 -35.3359375 137.1171875 C-33.51835938 137.12685547 -33.51835938 137.12685547 -31.6640625 137.13671875 C-30.39304687 137.15347656 -29.12203125 137.17023438 -27.8125 137.1875 C-26.53375 137.19652344 -25.255 137.20554688 -23.9375 137.21484375 C-20.77075421 137.23847618 -17.60410415 137.27434814 -14.4375 137.3125 C-14.4375 132.3625 -14.4375 127.4125 -14.4375 122.3125 C-17.20060547 122.36470703 -17.20060547 122.36470703 -20.01953125 122.41796875 C-22.4296784 122.44610276 -24.83983539 122.47340333 -27.25 122.5 C-29.07241211 122.53770508 -29.07241211 122.53770508 -30.93164062 122.57617188 C-32.67670898 122.59067383 -32.67670898 122.59067383 -34.45703125 122.60546875 C-35.53057861 122.6211792 -36.60412598 122.63688965 -37.71020508 122.65307617 C-40.4375 122.3125 -40.4375 122.3125 -42.2878418 120.9543457 C-43.92119376 118.62172902 -43.8646664 117.08908159 -43.4375 114.3125 C-39.94413182 111.98358788 -38.57742135 112.07698857 -34.45703125 112.1171875 C-33.29365234 112.12363281 -32.13027344 112.13007813 -30.93164062 112.13671875 C-29.10922852 112.16185547 -29.10922852 112.16185547 -27.25 112.1875 C-26.02345703 112.19652344 -24.79691406 112.20554687 -23.53320312 112.21484375 C-20.50121915 112.23843896 -17.46933527 112.27431033 -14.4375 112.3125 C-14.4375 107.6925 -14.4375 103.0725 -14.4375 98.3125 C-17.20060547 98.36470703 -17.20060547 98.36470703 -20.01953125 98.41796875 C-22.4296784 98.44610276 -24.83983539 98.47340333 -27.25 98.5 C-29.07241211 98.53770508 -29.07241211 98.53770508 -30.93164062 98.57617188 C-32.67670898 98.59067383 -32.67670898 98.59067383 -34.45703125 98.60546875 C-35.53057861 98.6211792 -36.60412598 98.63688965 -37.71020508 98.65307617 C-40.4375 98.3125 -40.4375 98.3125 -42.29174805 96.9543457 C-43.90473748 94.64295555 -43.79036938 93.06488116 -43.4375 90.3125 C-41.4375 88.3125 -41.4375 88.3125 -38.64013672 88.08544922 C-36.89627686 88.10115967 -36.89627686 88.10115967 -35.1171875 88.1171875 C-33.23193359 88.12685547 -33.23193359 88.12685547 -31.30859375 88.13671875 C-29.33052734 88.16185547 -29.33052734 88.16185547 -27.3125 88.1875 C-25.97266279 88.19753017 -24.63281848 88.20665596 -23.29296875 88.21484375 C-20.00773624 88.23847852 -16.72259602 88.2743505 -13.4375 88.3125 C-13.4375 83.3625 -13.4375 78.4125 -13.4375 73.3125 C-16.43457031 73.34730469 -16.43457031 73.34730469 -19.4921875 73.3828125 C-21.42496239 73.39671736 -23.35773852 73.41055206 -25.29052734 73.42236328 C-27.2966136 73.43738107 -29.30261324 73.46278981 -31.30859375 73.48828125 C-32.56542969 73.49472656 -33.82226562 73.50117187 -35.1171875 73.5078125 C-36.27976074 73.51828613 -37.44233398 73.52875977 -38.64013672 73.53955078 C-41.4375 73.3125 -41.4375 73.3125 -43.4375 71.3125 C-43.79036938 68.56011884 -43.90473748 66.98204445 -42.29174805 64.6706543 C-39.64544083 62.73235185 -37.71089181 62.97191378 -34.45703125 63.01953125 C-33.29365234 63.02919922 -32.13027344 63.03886719 -30.93164062 63.04882812 C-29.71669922 63.07396484 -28.50175781 63.09910156 -27.25 63.125 C-26.02345703 63.13853516 -24.79691406 63.15207031 -23.53320312 63.16601562 C-20.5011155 63.20140964 -17.46925309 63.25521705 -14.4375 63.3125 C-14.4375 58.6925 -14.4375 54.0725 -14.4375 49.3125 C-17.20060547 49.36470703 -17.20060547 49.36470703 -20.01953125 49.41796875 C-22.4296784 49.44610276 -24.83983539 49.47340333 -27.25 49.5 C-28.46494141 49.52513672 -29.67988281 49.55027344 -30.93164062 49.57617188 C-32.67670898 49.59067383 -32.67670898 49.59067383 -34.45703125 49.60546875 C-35.53057861 49.6211792 -36.60412598 49.63688965 -37.71020508 49.65307617 C-40.4375 49.3125 -40.4375 49.3125 -42.29174805 47.9543457 C-43.90473748 45.64295555 -43.79036938 44.06488116 -43.4375 41.3125 C-41.4375 39.3125 -41.4375 39.3125 -38.54833984 39.08544922 C-37.34387207 39.09592285 -36.1394043 39.10639648 -34.8984375 39.1171875 C-32.94550781 39.12685547 -32.94550781 39.12685547 -30.953125 39.13671875 C-29.57291405 39.15343071 -28.19270571 39.17036061 -26.8125 39.1875 C-25.42448548 39.19752994 -24.03646411 39.20665577 -22.6484375 39.21484375 C-19.24461974 39.23848137 -15.84114494 39.27143133 -12.4375 39.3125 C-12.210625 38.57 -11.98375 37.8275 -11.75 37.0625 C-10.4375 34.3125 -10.4375 34.3125 -7.85229492 32.40283203 C-5.16144928 30.49992704 -5.16144928 30.49992704 -4.80981445 27.31982422 C-4.8068335 26.1804541 -4.80385254 25.04108398 -4.80078125 23.8671875 C-4.78080078 22.62582031 -4.76082031 21.38445312 -4.74023438 20.10546875 C-4.74345703 18.81253906 -4.74667969 17.51960938 -4.75 16.1875 C-4.73347512 13.62232976 -4.70914502 11.05719399 -4.67578125 8.4921875 C-4.6763855 6.78651611 -4.6763855 6.78651611 -4.67700195 5.04638672 C-4.36297673 1.46182557 -3.60441269 0.46210419 0 0 Z M-3.29088783 40.45911217 C-4.94726917 43.13649263 -4.81522249 45.2093777 -4.81845093 48.34765625 C-4.8269104 49.60956787 -4.83536987 50.87147949 -4.84408569 52.17163086 C-4.83825259 53.57275519 -4.83210808 54.97387825 -4.82568359 56.375 C-4.82974802 57.84839263 -4.83508917 59.32178222 -4.84161377 60.79516602 C-4.85530867 64.79927012 -4.84997985 68.80314274 -4.84047651 72.80725098 C-4.83289113 76.99390292 -4.8399224 81.18053479 -4.84463501 85.3671875 C-4.85009584 92.39847377 -4.84289238 99.42966557 -4.82861328 106.4609375 C-4.8122861 114.59474254 -4.81757438 122.72832201 -4.8340925 130.86212158 C-4.84769806 137.84053481 -4.84963159 144.81888005 -4.84177649 151.79730225 C-4.83709484 155.96744485 -4.83648857 160.13748136 -4.84638596 164.30761719 C-4.85503987 168.22779929 -4.84906282 172.14769002 -4.83170319 176.06784058 C-4.82772987 177.5082043 -4.82888681 178.94859247 -4.83549118 180.38894653 C-4.84366258 182.35173681 -4.8316087 184.31458056 -4.81845093 186.27734375 C-4.81731985 187.3768335 -4.81618877 188.47632324 -4.81502342 189.60913086 C-4.62665719 192.28532519 -4.62665719 192.28532519 -3.29088783 194.16546726 C-0.61434938 195.82193504 1.45994577 195.69324565 4.59765625 195.70018005 C5.85956787 195.71008469 7.12147949 195.71998932 8.42163086 195.73019409 C9.82275487 195.72595584 11.22387795 195.72139796 12.625 195.71655273 C14.09839395 195.72225401 15.57178348 195.72921733 17.04516602 195.73735046 C21.0492578 195.75532287 25.05313094 195.75410603 29.05725098 195.74840808 C32.39741604 195.74532246 35.73753872 195.75140159 39.07769775 195.75744683 C46.95548005 195.7715035 54.83315392 195.76992097 62.7109375 195.75854492 C70.84478984 195.74705884 78.97831266 195.76114485 87.11212158 195.7879414 C94.09053881 195.81007286 101.0688524 195.81674168 108.04730225 195.81086498 C112.21748748 195.80748849 116.38746138 195.80995623 120.55761719 195.82711601 C124.47786141 195.8425429 128.397616 195.83867763 132.31784058 195.81981087 C133.75820825 195.81611326 135.19861187 195.81926749 136.63894653 195.82969666 C138.60170893 195.84282584 140.56459704 195.82900122 142.52734375 195.81370544 C144.17657837 195.81339152 144.17657837 195.81339152 145.85913086 195.81307125 C148.62671213 195.54180372 148.62671213 195.54180372 150.41588783 193.66351509 C151.8724029 190.67707469 151.94000608 188.51843385 151.94345093 185.1950531 C151.95614014 183.3127449 151.95614014 183.3127449 151.96908569 181.39241028 C151.96325299 180.00436271 151.9571085 178.61631643 151.95068359 177.22827148 C151.95474924 175.76458342 151.96009108 174.30089842 151.96661377 172.83721924 C151.98029296 168.86416437 151.97498663 164.89134314 151.96547651 160.91828418 C151.95788446 156.76233459 151.96492413 152.60640508 151.96963501 148.45045471 C151.97509328 141.47222295 151.96789846 134.49408644 151.95361328 127.51586914 C151.9372802 119.44395873 151.94257969 111.37227556 151.9590925 103.30037063 C151.97269772 96.3728921 151.97463195 89.44548204 151.96677649 82.51799446 C151.96209547 78.37916561 151.96148696 74.24044365 151.97138596 70.10162163 C151.98003961 66.21179414 151.97406333 62.3222603 151.95670319 58.4324646 C151.95273 57.00338797 151.95388659 55.5742867 151.96049118 54.1452198 C151.96866293 52.19780982 151.95660839 50.25034594 151.94345093 48.30296326 C151.94231985 47.21214667 151.94118877 46.12133009 151.94002342 44.99745846 C151.74998758 42.33733461 151.74998758 42.33733461 150.41588783 40.46190548 C147.73877241 38.80165333 145.66733145 38.93477927 142.52734375 38.93154907 C141.26543213 38.9230896 140.00352051 38.91463013 138.70336914 38.90591431 C137.30224481 38.91174741 135.90112175 38.91789192 134.5 38.92431641 C133.02660737 38.92025198 131.55321778 38.91491083 130.07983398 38.90838623 C126.07572988 38.89469133 122.07185726 38.90002015 118.06774902 38.90952349 C113.88109708 38.91710887 109.69446521 38.9100776 105.5078125 38.90536499 C98.47652623 38.89990416 91.44533443 38.90710762 84.4140625 38.92138672 C76.28025746 38.9377139 68.14667799 38.93242562 60.01287842 38.9159075 C53.03446519 38.90230194 46.05611995 38.90036841 39.07769775 38.90822351 C34.90755515 38.91290516 30.73751864 38.91351143 26.56738281 38.90361404 C22.64720071 38.89496013 18.72730998 38.90093718 14.80715942 38.91829681 C13.3667957 38.92227013 11.92640753 38.92111319 10.48605347 38.91450882 C8.52326319 38.90633742 6.56041944 38.9183913 4.59765625 38.93154907 C3.4981665 38.93268015 2.39867676 38.93381123 1.26586914 38.93497658 C-1.41035992 39.12339034 -1.41035992 39.12339034 -3.29088783 40.45911217 Z " fill="#FF3838" transform="translate(88.4375,44.6875)"/>
<path d="M0 0 C22.44 0 44.88 0 68 0 C68 22.44 68 44.88 68 68 C45.56 68 23.12 68 0 68 C0 45.56 0 23.12 0 0 Z " fill="#FFFEFE" transform="translate(128,128)"/>
<path d="M0 0 C0.70427124 -0.0049649 1.40854248 -0.00992981 2.13415527 -0.01504517 C4.46924815 -0.02967629 6.80427307 -0.03647087 9.1394043 -0.04199219 C10.76124575 -0.04774353 12.38308718 -0.05350127 14.00492859 -0.05926514 C17.40872515 -0.06977829 20.81249807 -0.07561867 24.21630859 -0.07910156 C28.57435485 -0.08458236 32.93208805 -0.1086 37.2900362 -0.13707352 C40.64180915 -0.15571469 43.99350697 -0.16090631 47.34532738 -0.16243744 C48.95166927 -0.16546193 50.55800991 -0.17348364 52.16430092 -0.18662262 C54.41446209 -0.20371202 56.66386243 -0.20179603 58.9140625 -0.1953125 C60.19376419 -0.19895813 61.47346588 -0.20260376 62.79194641 -0.20635986 C67.31915576 0.28891516 69.72317018 1.76750375 72.93936157 4.90638733 C74.64964896 8.08874859 74.53254985 10.63365419 74.53930664 14.23706055 C74.5445636 14.94162384 74.54982056 15.64618713 74.55523682 16.37210083 C74.56841896 18.69653628 74.55970459 21.02028438 74.54956055 23.34472656 C74.55158203 24.96371085 74.5544941 26.58269424 74.55825806 28.20167542 C74.56267916 31.59360428 74.5562582 34.98529599 74.54223633 38.37719727 C74.52515807 42.7195474 74.53497808 47.06134068 74.55295372 51.40367031 C74.56380908 54.74689405 74.56033698 58.08998643 74.55257034 61.43321419 C74.55057246 63.0339572 74.55301313 64.63471223 74.560009 66.23544121 C74.56765102 68.47588423 74.55598129 70.71543384 74.53930664 72.95581055 C74.53691986 74.22947983 74.53453308 75.50314911 74.53207397 76.81541443 C74.01868633 81.32426417 72.53686348 83.73897092 69.41061401 86.9473877 C66.2099492 88.66670915 63.62292318 88.55736122 59.99926758 88.58105469 C59.28655701 88.58952423 58.57384644 88.59799377 57.83953857 88.60671997 C55.48748848 88.63008586 53.13609285 88.63111218 50.78393555 88.62988281 C49.14492533 88.6369854 47.50591759 88.64468455 45.86691284 88.6529541 C42.43211965 88.66639847 38.99755628 88.66796827 35.56274414 88.66210938 C31.16867872 88.65621757 26.77571986 88.68678235 22.38186836 88.72722626 C18.99655249 88.7531236 15.61150219 88.75597879 12.22610092 88.75233459 C10.60661923 88.7540244 8.9871251 88.76365364 7.36774063 88.78147888 C5.09833854 88.80370772 2.83116444 88.79394976 0.56176758 88.77636719 C-0.72744598 88.77842163 -2.01665955 88.78047607 -3.34494019 88.78259277 C-7.94986709 87.96586066 -9.56298727 86.43085827 -12.84887695 83.16113281 C-14.32683752 80.20521168 -14.00890908 77.53560268 -14.04174805 74.23632812 C-14.04992554 73.52390961 -14.05810303 72.81149109 -14.06652832 72.07748413 C-14.09138316 69.71475058 -14.10789994 67.35207719 -14.12231445 64.98925781 C-14.12763813 64.18217125 -14.13296181 63.37508469 -14.13844681 62.54354095 C-14.16518094 58.2702479 -14.18455349 53.99698406 -14.19897461 49.72363281 C-14.21560818 45.31391187 -14.26037354 40.90494039 -14.31134605 36.49550247 C-14.34503938 33.10165572 -14.35655434 29.70798624 -14.36220169 26.31398773 C-14.36891026 24.68889398 -14.38412227 23.06381173 -14.4080925 21.43888092 C-14.43978943 19.15980947 -14.43977513 16.88275052 -14.43237305 14.60351562 C-14.4404599 13.30826965 -14.44854675 12.01302368 -14.45687866 10.67852783 C-13.65765398 6.05487486 -12.13097391 4.45441245 -8.84887695 1.16113281 C-5.90804137 -0.30928498 -3.28318906 0.01755059 0 0 Z M-3.84887695 10.16113281 C-3.84887695 32.60113281 -3.84887695 55.04113281 -3.84887695 78.16113281 C18.59112305 78.16113281 41.03112305 78.16113281 64.15112305 78.16113281 C64.15112305 55.72113281 64.15112305 33.28113281 64.15112305 10.16113281 C41.71112305 10.16113281 19.27112305 10.16113281 -3.84887695 10.16113281 Z " fill="#FF3838" transform="translate(131.848876953125,117.8388671875)"/>
</svg>
